<svg width="59" height="62" viewBox="0 0 59 62" fill="none" xmlns="http://www.w3.org/2000/svg">
<path d="M59.1972 20.4364L46.5042 42.4217C48.2862 42.0007 50.2622 41.6717 52.0792 41.7057C53.4472 41.7317 54.9142 41.9637 56.1712 42.6797C57.5112 43.4427 58.4782 44.6847 58.8332 46.3917C59.6202 50.1817 56.9892 53.8267 53.2282 54.4227C51.7762 54.6527 50.1622 54.8777 48.4892 55.1107L48.4762 55.1127C43.1662 55.8527 37.2922 56.6777 33.0382 58.0647C26.8452 60.9547 19.3412 60.8557 12.9265 57.1517C2.56372 51.1687 -1.08978 38.0027 4.84502 27.7229L7.53522 23.0634L7.53912 23.0566L7.54552 23.0455L17.2673 6.20684C18.7282 3.67714 21.9612 2.86323 24.4672 4.31033C26.9732 5.75733 27.8852 8.96423 26.4252 11.4939L22.6442 18.0422C22.6132 18.0958 22.6152 18.2088 22.7282 18.2738C22.8402 18.3388 22.9392 18.2842 22.9702 18.2306L31.0722 4.19854C32.5322 1.66884 35.7652 0.854933 38.2722 2.30193C40.7782 3.74903 41.6902 6.95593 40.2292 9.48563L32.1282 23.5178C32.0972 23.5713 32.0992 23.6843 32.2122 23.7492C32.3242 23.8142 32.4232 23.7596 32.4542 23.7061L37.5852 14.819L42.7162 5.93204C44.1762 3.40234 47.4102 2.58844 49.9162 4.03544C52.4222 5.48244 53.3342 8.68934 51.8732 11.2191L41.6112 28.9932C41.5812 29.0467 41.5832 29.1597 41.6952 29.2246C41.8082 29.2896 41.9072 29.235 41.9382 29.1815L50.0392 15.1493C51.5002 12.6196 54.7332 11.8057 57.2392 13.2527C59.7452 14.6998 60.6572 17.9067 59.1972 20.4364Z" fill="#C7B9FF" stroke="black" stroke-width="3" stroke-linecap="square"/>
</svg>
