<svg width="62" height="63" viewBox="0 0 62 63" fill="none" xmlns="http://www.w3.org/2000/svg">
<path d="M15.3025 42.8275C13.4814 42.3651 11.6113 42.1234 9.73249 42.1075C8.30729 42.0955 6.9015 42.4392 5.6425 43.1075C4.9537 43.4936 4.3577 44.0257 3.8965 44.6666C3.4352 45.3075 3.1198 46.0417 2.9725 46.8175C2.8004 47.7125 2.80989 48.6335 3.00059 49.5245C3.19129 50.4155 3.5593 51.2595 4.0826 52.0065C4.606 52.7525 5.274 53.3855 6.047 53.8685C6.8201 54.3515 7.6823 54.6744 8.5825 54.8175C10.0325 55.0475 11.6425 55.2675 13.3225 55.5075C18.6325 56.2475 24.5025 57.0675 28.7625 58.4575C32.9333 60.3955 37.6107 60.9625 42.1238 60.0775C46.6369 59.1935 50.7538 56.9015 53.8842 53.5325C57.015 50.1635 58.998 45.8896 59.549 41.3238C60.1 36.758 59.191 32.1349 56.953 28.1175L54.2625 23.4574L44.5425 6.61745C43.8259 5.43315 42.6736 4.57685 41.3328 4.23235C39.9921 3.88795 38.5698 4.08275 37.371 4.77505C36.1723 5.46735 35.2927 6.60195 34.9209 7.93535C34.5492 9.26875 34.7149 10.6949 35.3825 11.9075L39.1625 18.4574C39.1804 18.4988 39.1822 18.5454 39.1673 18.588C39.1525 18.6306 39.1223 18.6662 39.0825 18.6875C39.0495 18.717 39.0068 18.7333 38.9625 18.7333C38.9183 18.7333 38.8755 18.717 38.8425 18.6875L30.7325 4.68745C30.031 3.47405 28.8763 2.58905 27.5223 2.22715C26.1683 1.86515 24.7259 2.05595 23.5125 2.75745C22.2992 3.45895 21.4142 4.61375 21.0522 5.96775C20.6903 7.32175 20.881 8.76405 21.5825 9.97745L29.6825 23.9775C29.701 24.0203 29.703 24.0684 29.6883 24.1126C29.6735 24.1569 29.643 24.1943 29.6025 24.2175C29.5828 24.2307 29.5608 24.2398 29.5375 24.2444C29.5143 24.249 29.4904 24.249 29.4671 24.2444C29.4439 24.2398 29.4218 24.2306 29.4022 24.2174C29.3825 24.2042 29.3656 24.1871 29.3525 24.1674L19.0925 6.39745C18.3759 5.21315 17.2236 4.35685 15.8829 4.01235C14.5421 3.66795 13.1197 3.86275 11.921 4.55505C10.7223 5.24735 9.8427 6.38195 9.4709 7.71535C9.0991 9.04875 9.26489 10.4749 9.93249 11.6875L20.2025 29.4574C20.2197 29.5 20.2199 29.5476 20.2032 29.5904C20.1865 29.6331 20.154 29.6679 20.1125 29.6875C20.0807 29.7193 20.0375 29.7371 19.9925 29.7371C19.9476 29.7371 19.9044 29.7193 19.8725 29.6875L11.7725 15.6875C11.0455 14.5273 9.89689 13.6941 8.56819 13.3633C7.23959 13.0324 5.8345 13.2297 4.6482 13.9135C3.462 14.5973 2.5871 15.7143 2.2074 17.0299C1.8278 18.3454 1.97299 19.7569 2.61249 20.9675L15.3025 42.8275Z" fill="#FFC809" stroke="black" stroke-width="4" stroke-linecap="square"/>
</svg>
