<svg width="171" height="171" viewBox="0 0 171 171" fill="none" xmlns="http://www.w3.org/2000/svg">
<g clip-path="url(#clip0_41_2616)">
<path d="M85.5 169.5C102.114 169.5 118.354 164.573 132.168 155.343C145.982 146.113 156.748 132.994 163.106 117.645C169.464 102.296 171.127 85.4069 167.886 69.1125C164.645 52.8181 156.645 37.8507 144.897 26.1031C133.149 14.3555 118.182 6.35523 101.888 3.11408C85.5932 -0.127084 68.7036 1.53639 53.3546 7.89415C38.0056 14.252 24.8866 25.0184 15.6566 38.8322C6.42652 52.6459 1.5 68.8865 1.5 85.5001C1.5 107.778 10.35 129.144 26.103 144.897C41.8561 160.65 63.2218 169.5 85.5 169.5Z" fill="white" stroke="black" stroke-width="3"/>
<path d="M86.8502 18.1801V16.2901C86.5236 16.9391 86.0357 17.4933 85.4333 17.8996C84.8309 18.3059 84.1343 18.5505 83.4102 18.6101L83.4901 15.3701C84.3014 15.383 85.0975 15.1489 85.7726 14.6988C86.4477 14.2487 86.97 13.6039 87.2701 12.8501L90.0702 12.9201L89.7602 25.3701L86.6302 25.3001L86.8502 18.1801Z" fill="#231F20"/>
<path d="M92.5505 19.3C93.3105 15.3 95.9505 13.24 99.0805 13.83C102.211 14.42 104.001 17.25 103.231 21.31C102.461 25.37 99.8305 27.26 96.6605 26.66C93.4905 26.06 91.7805 23.3 92.5505 19.3ZM99.8705 20.62C100.401 17.79 99.7305 16.62 98.5905 16.42C97.4505 16.22 96.4405 17.06 95.9105 19.88C95.3805 22.7 96.0505 23.88 97.1505 24.07C98.2505 24.26 99.3205 23.47 99.8705 20.58V20.62Z" fill="#231F20"/>
<path d="M105.21 21.8499C106.74 18.0399 109.731 16.5699 112.681 17.7599C115.631 18.9499 116.831 22.0799 115.291 25.9099C113.751 29.7399 110.801 31.0799 107.811 29.9099C104.821 28.7399 103.66 25.6999 105.21 21.8499ZM112.131 24.5799C113.201 21.8999 112.771 20.6399 111.701 20.1999C110.631 19.7599 109.461 20.4199 108.401 23.0799C107.341 25.7399 107.751 27.0199 108.791 27.4399C109.831 27.8599 111.031 27.2999 112.131 24.5799Z" fill="#231F20"/>
<path d="M129.77 27.7599L131.77 29.1299L117.23 34.1299L115.23 32.7399L129.77 27.7599ZM118.71 24.4199C120 22.5599 121.87 22.0599 123.45 23.1599C125.03 24.2599 125.23 26.1599 123.95 28.0499C122.67 29.9399 120.82 30.3599 119.21 29.2399C117.6 28.1199 117.44 26.2399 118.71 24.4199ZM122.03 26.6899C122.79 25.5899 122.89 24.8999 122.45 24.5899C122.01 24.2799 121.45 24.6399 120.66 25.7299C119.87 26.8199 119.8 27.4999 120.22 27.7899C120.64 28.0799 121.27 27.7799 122.03 26.6899ZM122.89 33.8899C124.19 32.0299 126.05 31.5299 127.63 32.6299C129.21 33.7299 129.41 35.6299 128.12 37.5299C126.83 39.4299 125 39.8299 123.4 38.7099C121.8 37.5899 121.61 35.7299 122.89 33.8899ZM126.2 36.1699C126.97 35.0799 127.06 34.3799 126.62 34.0799C126.18 33.7799 125.62 34.0799 124.83 35.2199C124.04 36.3599 123.98 36.9699 124.4 37.2199C124.82 37.4699 125.44 37.2999 126.2 36.1699Z" fill="#231F20"/>
<path d="M135.2 40.9599C138.12 38.8299 141.89 38.9599 144.55 42.6099C147.21 46.2599 146.17 49.8999 143.25 52.0199C140.33 54.1399 136.67 54.0199 133.98 50.2899C131.29 46.5599 132.28 43.0799 135.2 40.9599ZM141.2 49.1299C143.03 47.8099 143.66 45.9199 142.41 44.2099C141.16 42.4999 139.17 42.4999 137.34 43.8299C135.51 45.1599 134.95 47.0199 136.2 48.7299C137.45 50.4399 139.36 50.4499 141.17 49.1299H141.2Z" fill="#231F20"/>
<path d="M150.079 51.8501L154.079 60.7801L151.629 61.8701L148.999 55.9901L146.499 57.1201L148.619 61.8801L146.249 62.9401L144.129 58.1801L140.129 59.9701L138.779 56.9701L150.079 51.8501Z" fill="#231F20"/>
<path d="M156.58 69.5601L157.49 75.4301C157.89 78.0401 156.65 80.2501 154.08 80.6401C151.51 81.0301 149.66 79.3101 149.26 76.7201L148.86 74.1201L144.77 74.7501L144.27 71.4601L156.58 69.5601ZM151.7 75.7201C151.87 76.8201 152.58 77.4501 153.54 77.3001C154.5 77.1501 154.96 76.3501 154.79 75.2401L154.49 73.2401L151.39 73.7201L151.7 75.7201Z" fill="#231F20"/>
<path d="M158.331 83.5602L158.041 90.0302C157.911 92.8002 156.501 94.4102 154.441 94.3202C153.573 94.2747 152.755 93.9015 152.151 93.2759C151.548 92.6504 151.205 91.8191 151.191 90.9502C150.941 92.6502 150.191 93.4802 148.281 93.7902L145.381 94.2402L145.541 90.6902L148.421 90.3402C149.691 90.2002 150.181 89.7302 150.241 88.4502L150.331 86.5302L145.741 86.3202L145.891 82.9902L158.331 83.5602ZM152.611 89.1102C152.611 90.1102 153.031 90.8202 153.981 90.8602C154.931 90.9002 155.411 90.2302 155.461 89.2402L155.571 86.7602L152.721 86.6302L152.611 89.1102Z" fill="#231F20"/>
<path d="M151.36 96.3501C154.85 97.3001 157.11 100.35 155.93 104.67C154.75 108.99 151.26 110.51 147.77 109.56C144.28 108.61 142.12 105.66 143.32 101.25C144.52 96.8401 147.88 95.4001 151.36 96.3501ZM148.72 106.13C150.91 106.72 152.72 106.03 153.33 103.99C153.94 101.95 152.63 100.38 150.45 99.7901C148.27 99.2001 146.45 99.9201 145.91 101.97C145.37 104.02 146.56 105.54 148.72 106.13Z" fill="#231F20"/>
<path d="M152.17 114.78L147.7 123.47L145.31 122.24L148.26 116.51L145.79 115.24L143.41 119.88L141.1 118.69L143.48 114.05L139.58 112.05L141.1 109.05L152.17 114.78Z" fill="#231F20"/>
<path d="M145.9 125.94L143.95 128.71L133.77 121.53L135.77 118.77L145.9 125.94Z" fill="#231F20"/>
<path d="M137.761 132.3L140.501 129.3L142.371 131.05L134.531 139.39L132.661 137.64L135.431 134.69L128.221 127.91L130.531 125.45L137.761 132.3Z" fill="#231F20"/>
<path d="M127.769 133.59L125.609 136.22C125.164 135.76 124.562 135.484 123.923 135.446C123.284 135.409 122.654 135.614 122.159 136.02C120.949 136.9 120.829 137.72 121.279 138.34C121.729 138.96 122.279 138.99 123.409 138.4L124.779 137.64C127.199 136.31 129.029 136.37 130.399 138.26C131.769 140.15 131.139 142.54 128.399 144.51C125.659 146.48 123.399 146.28 121.889 145.02L124.049 142.41C124.462 142.753 124.982 142.941 125.519 142.941C126.056 142.941 126.576 142.753 126.989 142.41C128.039 141.65 128.079 140.87 127.689 140.32C127.299 139.77 126.689 139.78 125.809 140.23L124.429 140.99C121.999 142.35 119.809 142.33 118.429 140.51C117.049 138.69 117.569 136.15 120.619 133.93C123.669 131.71 126.139 132.11 127.769 133.59Z" fill="#231F20"/>
<path d="M115.34 151.92L106.2 155.37L105.25 152.86L111.25 150.58L110.25 147.99L105.37 149.83L104.5 147.4L109.38 145.56L107.83 141.44L110.94 140.27L115.34 151.92Z" fill="#231F20"/>
<path d="M101.63 149.04L102.79 156.33L99.4704 156.86L98.3703 149.99C98.0603 147.99 97.1203 147.14 95.4903 147.41C93.8603 147.68 93.2503 148.84 93.5603 150.76L94.6503 157.63L91.3303 158.16L90.1704 150.87C89.6104 147.39 91.5303 145.21 95.0503 144.65C98.5703 144.09 101.08 145.61 101.63 149.04Z" fill="#231F20"/>
<path d="M86.73 158.42L82.29 158.12L78.01 150.46L77.8 153.64L77.5 157.8L74.25 157.58L75.09 145.15L78.43 145.37L83.69 154.85L83.95 151.12L84.31 145.77L87.56 145.99L86.73 158.42Z" fill="#231F20"/>
<path d="M69.5791 156.64L64.7491 155.16C61.0991 154.05 59.0091 151.03 60.1391 147.32C61.2691 143.61 64.7491 142.14 68.2891 143.22L73.2191 144.72L69.5791 156.64ZM67.7391 145.84C65.6091 145.19 64.1691 146.07 63.4891 148.3C62.8691 150.3 63.4891 152.02 65.5891 152.65L67.1591 153.12L69.2391 146.3L67.7391 145.84Z" fill="#231F20"/>
<path d="M49.3697 148.78L43.9897 145.17C41.6897 143.62 41.0397 141.58 42.1997 139.86C42.6903 139.142 43.4366 138.639 44.2861 138.453C45.1356 138.267 46.024 138.413 46.7696 138.86C46.1368 138.435 45.6894 137.785 45.5186 137.042C45.3477 136.299 45.4661 135.519 45.8497 134.86L46.9697 132.14L49.9697 134.14L48.7696 136.79C48.6209 136.992 48.5194 137.225 48.4726 137.472C48.4257 137.719 48.4348 137.973 48.4991 138.215C48.5634 138.458 48.6812 138.683 48.844 138.874C49.0068 139.066 49.2103 139.218 49.4397 139.32L51.0397 140.4L53.5997 136.59L56.3596 138.44L49.3697 148.78ZM47.5997 141.01C47.4446 140.867 47.2605 140.759 47.06 140.693C46.8595 140.628 46.6472 140.606 46.4375 140.63C46.2278 140.653 46.0257 140.722 45.8449 140.831C45.6641 140.939 45.5089 141.086 45.3897 141.26C44.8697 142.05 45.1897 142.82 46.0097 143.37L48.0697 144.75L49.6597 142.39L47.5997 141.01Z" fill="#231F20"/>
<path d="M37.2004 139.99L30.4004 133.15L32.2804 131.28L36.7604 135.79L38.3304 134.23L34.8604 130.75L36.6104 129L40.0804 132.49L41.8304 130.74L37.3504 126.23L39.2304 124.36L46.0404 131.2L37.2004 139.99Z" fill="#231F20"/>
<path d="M28.01 130.19L22.5 122.12L24.72 120.6L28.36 125.92L30.65 124.35L27.71 120.05L29.85 118.58L32.8 122.88L36.43 120.4L38.31 123.15L28.01 130.19Z" fill="#231F20"/>
<path d="M26.8203 117.3C23.4903 118.69 19.8203 117.7 18.1103 113.53C16.4003 109.36 18.2203 106.05 21.5603 104.66C24.9003 103.27 28.4103 104.27 30.1803 108.5C31.9503 112.73 30.1603 115.94 26.8203 117.3ZM22.9103 107.96C20.8203 108.83 19.7703 110.52 20.5903 112.47C21.4103 114.42 23.3503 114.89 25.4403 114.02C27.5303 113.15 28.5003 111.47 27.6903 109.52C26.8803 107.57 24.9803 107.12 22.9103 107.99V107.96Z" fill="#231F20"/>
<path d="M14.7905 103.14L13.7005 96.7601C13.2205 94.0201 14.2505 92.1501 16.2905 91.7601C17.1471 91.6128 18.0276 91.7991 18.751 92.2808C19.4745 92.7625 19.986 93.503 20.1805 94.3501C20.0574 93.6069 20.2185 92.8446 20.6316 92.2147C21.0448 91.5848 21.6798 91.1333 22.4105 90.9501L25.1605 89.8901L25.7605 93.3901L23.0205 94.3901C22.7719 94.425 22.5341 94.5145 22.3242 94.6523C22.1144 94.79 21.9376 94.9725 21.8066 95.1866C21.6756 95.4008 21.5937 95.6413 21.5667 95.8909C21.5397 96.1405 21.5683 96.3929 21.6505 96.6301L21.9805 98.5301L26.5005 97.7501L27.0705 101.02L14.7905 103.14ZM19.1905 96.5001C19.0305 95.5001 18.4105 94.9201 17.4905 95.0801C16.5705 95.2401 16.2205 96.0001 16.3905 96.9801L16.8105 99.4201L19.6105 98.9301L19.1905 96.5001Z" fill="#231F20"/>
<path d="M12.7402 88.3002L12.9702 78.6602L15.6202 78.7202L15.4702 85.0702L17.6802 85.1202L17.7902 80.2102L20.2702 80.2701L20.1502 85.1802L22.6202 85.2402L22.7702 78.8902L25.4302 78.9501L25.1902 88.6002L12.7402 88.3002Z" fill="#231F20"/>
<path d="M21.9595 77.5499L21.8295 74.1499C22.4673 74.1981 23.0999 74.0048 23.6019 73.6084C24.1038 73.212 24.4385 72.6415 24.5395 72.0099C24.8595 70.5499 24.4195 69.8499 23.6695 69.6899C22.9195 69.5299 22.4595 69.8999 22.0395 71.0599L21.5095 72.5299C20.5795 75.1299 19.1695 76.2999 16.8995 75.7999C14.7995 75.3399 13.4995 73.0899 14.2195 69.7999C14.9395 66.5099 16.7595 65.1799 18.7495 65.1099L18.8595 68.4899C18.3252 68.5008 17.8114 68.6973 17.4063 69.0459C17.0011 69.3944 16.73 69.8732 16.6395 70.3999C16.3595 71.6699 16.8395 72.2899 17.5095 72.3999C18.1795 72.5099 18.6395 72.1199 18.9595 71.2299L19.4895 69.7399C20.4095 67.1199 22.0595 65.6799 24.2695 66.1599C26.4795 66.6399 27.7895 68.8499 26.9895 72.5399C26.2095 76.0999 24.1595 77.5799 21.9595 77.5499Z" fill="#231F20"/>
<path d="M20.3795 59.4098L18.7995 63.1098L16.4395 62.1098L20.9494 51.5898L23.3094 52.5898L21.7195 56.2998L30.8094 60.1998L29.4995 63.2998L20.3795 59.4098Z" fill="#231F20"/>
<path d="M34.2801 49.0602L31.6901 52.9802L33.3901 55.1202L31.5001 57.9902L23.5801 47.3702L26.0301 43.6602L38.9101 46.7602L36.9101 49.7602L34.2801 49.0602ZM31.6901 48.3302L29.6001 47.7402C28.2501 47.3602 27.6001 47.1602 26.8501 46.9302C27.3301 47.5002 27.8501 48.0802 28.6801 49.1802L30.0101 50.8702L31.6901 48.3302Z" fill="#231F20"/>
<path d="M33.5006 38.4202L30.7506 41.3002L28.8906 39.5302L36.7806 31.2402L38.6406 33.0102L35.8506 35.9302L43.0206 42.7602L40.6906 45.3002L33.5006 38.4202Z" fill="#231F20"/>
<path d="M39.0098 29.62L41.6598 27.52L49.3997 37.3L46.7498 39.4L39.0098 29.62Z" fill="#231F20"/>
<path d="M47.3792 30.7099C45.6292 27.5499 46.2192 23.8299 50.1692 21.6399C54.1192 19.4499 57.5992 20.9199 59.3492 24.0799C61.0992 27.2399 60.4992 30.8499 56.4992 33.0799C52.4992 35.3099 49.1292 33.8699 47.3792 30.7099ZM56.2292 25.7899C55.1392 23.7899 53.3392 22.9499 51.4892 23.9799C49.6392 25.0099 49.3892 26.9799 50.4892 28.9799C51.5892 30.9799 53.3592 31.7399 55.2092 30.7099C57.0592 29.6799 57.3192 27.7499 56.2292 25.7899Z" fill="#231F20"/>
<path d="M60.2402 17.05L64.5302 15.88L71.0902 21.7L70.2502 18.63L69.1502 14.63L72.2903 13.77L75.5802 25.77L72.3503 26.65L64.2702 19.44L65.2702 23.04L66.6802 28.21L63.5403 29.07L60.2402 17.05Z" fill="#231F20"/>
</g>
<defs>
<clipPath id="clip0_41_2616">
<rect width="171" height="171" fill="white"/>
</clipPath>
</defs>
</svg>
