<svg width="96" height="82" viewBox="0 0 96 82" fill="none" xmlns="http://www.w3.org/2000/svg">
<path d="M24.3025 52.7796C22.4814 52.3172 20.6113 52.0755 18.7325 52.0596C17.3073 52.0476 15.9015 52.3913 14.6425 53.0596C13.9537 53.4457 13.3577 53.9778 12.8965 54.6188C12.4352 55.2597 12.1198 55.9938 11.9725 56.7696C11.8004 57.6646 11.8099 58.5856 12.0006 59.4766C12.1913 60.3676 12.5593 61.2116 13.0826 61.9586C13.606 62.7046 14.274 63.3376 15.047 63.8206C15.8201 64.3036 16.6823 64.6266 17.5825 64.7696C19.0325 64.9996 20.6425 65.2196 22.3225 65.4596C27.6325 66.1996 33.5025 67.0196 37.7625 68.4096C41.9333 70.3476 46.6107 70.9146 51.1238 70.0296C55.6369 69.1456 59.7538 66.8536 62.8842 63.4846C66.015 60.1156 67.998 55.8417 68.549 51.2759C69.1 46.7101 68.191 42.087 65.953 38.0696L63.2625 33.4096L53.5425 16.5696C52.8259 15.3853 51.6736 14.529 50.3328 14.1845C48.9921 13.8401 47.5698 14.0349 46.371 14.7272C45.1723 15.4195 44.2927 16.5541 43.9209 17.8875C43.5492 19.2209 43.7149 20.647 44.3825 21.8596L48.1625 28.4096C48.1804 28.451 48.1822 28.4976 48.1673 28.5402C48.1525 28.5828 48.1223 28.6183 48.0825 28.6396C48.0495 28.6691 48.0068 28.6854 47.9625 28.6854C47.9183 28.6854 47.8755 28.6691 47.8425 28.6396L39.7325 14.6396C39.031 13.4262 37.8763 12.5412 36.5223 12.1793C35.1683 11.8173 33.7259 12.0081 32.5125 12.7096C31.2992 13.4111 30.4142 14.5659 30.0522 15.9199C29.6903 17.2739 29.881 18.7162 30.5825 19.9296L38.6825 33.9296C38.701 33.9724 38.703 34.0206 38.6883 34.0648C38.6735 34.1091 38.643 34.1464 38.6025 34.1696C38.5828 34.1828 38.5608 34.1919 38.5375 34.1965C38.5143 34.2011 38.4904 34.2011 38.4671 34.1965C38.4439 34.1919 38.4218 34.1827 38.4022 34.1695C38.3825 34.1563 38.3656 34.1393 38.3525 34.1196L28.0925 16.3496C27.3759 15.1653 26.2236 14.309 24.8829 13.9645C23.5421 13.6201 22.1197 13.8149 20.921 14.5072C19.7223 15.1995 18.8427 16.3341 18.4709 17.6675C18.0991 19.0009 18.2649 20.427 18.9325 21.6396L29.2025 39.4096C29.2197 39.4522 29.2199 39.4997 29.2032 39.5425C29.1865 39.5852 29.154 39.62 29.1125 39.6396C29.0807 39.6714 29.0375 39.6892 28.9925 39.6892C28.9476 39.6892 28.9044 39.6714 28.8725 39.6396L20.7725 25.6396C20.0455 24.4794 18.8969 23.6463 17.5682 23.3155C16.2396 22.9846 14.8345 23.1818 13.6482 23.8656C12.462 24.5494 11.5871 25.6664 11.2074 26.982C10.8278 28.2975 10.973 29.709 11.6125 30.9196L24.3025 52.7796Z" fill="#FFC809" stroke="black" stroke-width="4" stroke-linecap="square"/>
</svg>
