<svg width="112" height="85" viewBox="0 0 112 85" fill="none" xmlns="http://www.w3.org/2000/svg">
<path d="M15.3025 54.8275C13.4814 54.3651 11.6113 54.1234 9.73249 54.1075C8.30729 54.0955 6.9015 54.4392 5.6425 55.1075C4.9537 55.4936 4.3577 56.0257 3.8965 56.6666C3.4352 57.3075 3.1198 58.0417 2.9725 58.8175C2.8004 59.7125 2.80989 60.6335 3.00059 61.5245C3.19129 62.4155 3.5593 63.2595 4.0826 64.0065C4.606 64.7525 5.274 65.3855 6.047 65.8685C6.8201 66.3515 7.6823 66.6744 8.5825 66.8175C10.0325 67.0475 11.6425 67.2675 13.3225 67.5075C18.6325 68.2475 24.5025 69.0675 28.7625 70.4575C32.9333 72.3955 37.6107 72.9625 42.1238 72.0775C46.6369 71.1935 50.7538 68.9015 53.8842 65.5325C57.015 62.1635 58.998 57.8896 59.549 53.3238C60.1 48.758 59.191 44.1349 56.953 40.1175L54.2625 35.4574L44.5425 18.6174C43.8259 17.4331 42.6736 16.5769 41.3328 16.2324C39.9921 15.888 38.5698 16.0828 37.371 16.7751C36.1723 17.4674 35.2927 18.602 34.9209 19.9354C34.5492 21.2688 34.7149 22.6949 35.3825 23.9075L39.1625 30.4574C39.1804 30.4988 39.1822 30.5454 39.1673 30.588C39.1525 30.6306 39.1223 30.6662 39.0825 30.6875C39.0495 30.717 39.0068 30.7333 38.9625 30.7333C38.9183 30.7333 38.8755 30.717 38.8425 30.6875L30.7325 16.6874C30.031 15.474 28.8763 14.589 27.5223 14.2271C26.1683 13.8651 24.7259 14.0559 23.5125 14.7574C22.2992 15.4589 21.4142 16.6137 21.0522 17.9677C20.6903 19.3217 20.881 20.7641 21.5825 21.9775L29.6825 35.9775C29.701 36.0203 29.703 36.0684 29.6883 36.1126C29.6735 36.1569 29.643 36.1943 29.6025 36.2175C29.5828 36.2307 29.5608 36.2398 29.5375 36.2444C29.5143 36.249 29.4904 36.249 29.4671 36.2444C29.4439 36.2398 29.4218 36.2306 29.4022 36.2174C29.3825 36.2042 29.3656 36.1871 29.3525 36.1674L19.0925 18.3975C18.3759 17.2132 17.2236 16.3569 15.8829 16.0124C14.5421 15.668 13.1197 15.8627 11.921 16.555C10.7223 17.2473 9.8427 18.382 9.4709 19.7154C9.0991 21.0487 9.26489 22.4749 9.93249 23.6875L20.2025 41.4574C20.2197 41.5 20.2199 41.5476 20.2032 41.5904C20.1865 41.6331 20.154 41.6679 20.1125 41.6875C20.0807 41.7193 20.0375 41.7371 19.9925 41.7371C19.9476 41.7371 19.9044 41.7193 19.8725 41.6875L11.7725 27.6875C11.0455 26.5273 9.89689 25.6941 8.56819 25.3633C7.23959 25.0324 5.8345 25.2297 4.6482 25.9135C3.462 26.5973 2.5871 27.7143 2.2074 29.0299C1.8278 30.3454 1.97299 31.7569 2.61249 32.9675L15.3025 54.8275Z" fill="#FFC809" stroke="black" stroke-width="4" stroke-linecap="square"/>
<path d="M78.5982 2.04785L74.4932 13.3242" stroke="black" stroke-width="4" stroke-linecap="round"/>
<path d="M65.6799 2.45752L67.7637 14.2752" stroke="black" stroke-width="4" stroke-linecap="round"/>
<path d="M88.2323 10.666L79.0403 18.3794" stroke="black" stroke-width="4" stroke-linecap="round"/>
<path d="M112.197 43.4364L99.5042 65.4217C101.286 65.0007 103.262 64.6717 105.079 64.7057C106.447 64.7317 107.914 64.9637 109.171 65.6797C110.511 66.4427 111.478 67.6847 111.833 69.3917C112.62 73.1817 109.989 76.8267 106.228 77.4227C104.776 77.6527 103.162 77.8777 101.489 78.1107L101.476 78.1127C96.1662 78.8527 90.2922 79.6777 86.0382 81.0647C79.8452 83.9547 72.3412 83.8557 65.9265 80.1517C55.5637 74.1687 51.9102 61.0027 57.845 50.7229L60.5352 46.0634L60.5391 46.0566L60.5455 46.0455L70.2673 29.2068C71.7282 26.6771 74.9612 25.8632 77.4672 27.3103C79.9732 28.7573 80.8852 31.9642 79.4252 34.4939L75.6442 41.0422C75.6132 41.0958 75.6152 41.2088 75.7282 41.2738C75.8402 41.3388 75.9392 41.2842 75.9702 41.2306L84.0722 27.1985C85.5322 24.6688 88.7652 23.8549 91.2722 25.3019C93.7782 26.749 94.6902 29.9559 93.2292 32.4856L85.1282 46.5178C85.0972 46.5713 85.0992 46.6843 85.2122 46.7492C85.3242 46.8142 85.4232 46.7596 85.4542 46.7061L90.5852 37.819L95.7162 28.932C97.1762 26.4023 100.41 25.5884 102.916 27.0354C105.422 28.4824 106.334 31.6893 104.873 34.2191L94.6112 51.9932C94.5812 52.0467 94.5832 52.1597 94.6952 52.2246C94.8082 52.2896 94.9072 52.235 94.9382 52.1815L103.039 38.1493C104.5 35.6196 107.733 34.8057 110.239 36.2527C112.745 37.6998 113.657 40.9067 112.197 43.4364Z" fill="#C7B9FF" stroke="black" stroke-width="3" stroke-linecap="square"/>
</svg>
