<svg width="39" height="38" viewBox="0 0 39 38" fill="none" xmlns="http://www.w3.org/2000/svg">
<g clip-path="url(#clip0_12_857)">
<path d="M19.4676 21.0656C13.2702 21.0656 11.2044 25.906 11.2044 29.3287C11.2044 32.7515 13.2702 37.5919 19.4675 37.5919H33.9281V31.3945H19.4675C18.3266 31.3945 17.4018 30.4697 17.4018 29.3287C17.4018 28.1878 18.3266 27.263 19.4675 27.263H29.7965C33.9281 27.263 38.0597 25.1972 38.0597 18.9998C38.0597 12.8024 33.7215 10.7366 29.7965 10.7366H9.13864C7.99774 10.7366 7.07286 9.81177 7.07286 8.67087C7.07286 7.52996 7.99774 6.60508 9.13864 6.60508H24.632C26.3434 6.60508 27.7307 5.21775 27.7307 3.50639C27.7307 1.79504 26.3434 0.407715 24.632 0.407715H9.13864C2.94127 0.407715 0.875488 5.24816 0.875488 8.67087C0.875488 12.0936 2.94127 16.934 9.13864 16.934H29.7965C30.9374 16.934 31.8623 17.8589 31.8623 18.9998C31.8623 20.1407 30.9374 21.0656 29.7965 21.0656H19.4676Z" fill="#FFC700"/>
</g>
<defs>
<clipPath id="clip0_12_857">
<rect width="39" height="38" fill="white"/>
</clipPath>
</defs>
</svg>
