<svg width="38" height="38" viewBox="0 0 38 38" fill="none" xmlns="http://www.w3.org/2000/svg">
<g clip-path="url(#clip0_12_864)">
<path d="M21.0661 0.407715H16.9346V10.7366H21.0661V0.407715Z" fill="#FFC700"/>
<path d="M21.0661 27.2632H16.9346V37.5921H21.0661V27.2632Z" fill="#FFC700"/>
<path d="M7.02266 4.13554L4.13379 7.02441L11.849 14.7396L14.7378 11.8507L7.02266 4.13554Z" fill="#FFC700"/>
<path d="M26.0178 23.1316L23.1289 26.0205L30.8441 33.7357L33.7329 30.8468L26.0178 23.1316Z" fill="#FFC700"/>
<path d="M30.8465 4.13554L33.7354 7.02441L26.0202 14.7396L23.1313 11.8507L30.8465 4.13554Z" fill="#FFC700"/>
<path d="M11.8514 23.1316L14.7402 26.0205L7.02506 33.7357L4.13619 30.8468L11.8514 23.1316Z" fill="#FFC700"/>
<path d="M0.407227 16.9343L0.407227 21.0659H10.7361V16.9343H0.407227Z" fill="#FFC700"/>
<path d="M27.2627 16.9343V21.0659H37.5916V16.9343H27.2627Z" fill="#FFC700"/>
</g>
<defs>
<clipPath id="clip0_12_864">
<rect width="38" height="38" fill="white"/>
</clipPath>
</defs>
</svg>
