<svg width="42" height="41" viewBox="0 0 42 41" fill="none" xmlns="http://www.w3.org/2000/svg">
<g clip-path="url(#clip0_12_861)">
<path d="M17.4368 0H24.22L21.959 20.35H19.6978L17.4368 0Z" fill="#C7B9FF"/>
<path d="M24.2215 40.7001H17.4382L19.6993 20.3501H21.9604L24.2215 40.7001Z" fill="#C7B9FF"/>
<path d="M8.83879 37.1376L4.04224 32.3411L20.0307 19.5503L21.6295 21.1491L8.83879 37.1376Z" fill="#C7B9FF"/>
<path d="M32.8206 3.56201L37.6171 8.35855L21.6286 21.1494L20.0298 19.5505L32.8206 3.56201Z" fill="#C7B9FF"/>
<path d="M4.04346 8.35855L8.83999 3.56201L21.6308 19.5505L20.032 21.1493L4.04346 8.35855Z" fill="#C7B9FF"/>
<path d="M37.6191 32.3416L32.8225 37.1381L20.0317 21.1496L21.6306 19.5508L37.6191 32.3416Z" fill="#C7B9FF"/>
<path d="M0.481201 23.7418V16.9585L20.8312 19.2195V21.4807L0.481201 23.7418Z" fill="#C7B9FF"/>
<path d="M41.1813 16.9585V23.7419L20.8313 21.4808V19.2197L41.1813 16.9585Z" fill="#C7B9FF"/>
</g>
<defs>
<clipPath id="clip0_12_861">
<rect width="41.8" height="40.7" fill="white"/>
</clipPath>
</defs>
</svg>
