<svg width="250" height="275" viewBox="0 0 250 275" fill="none" xmlns="http://www.w3.org/2000/svg">
<g clip-path="url(#clip0_34_1441)">
<path fill-rule="evenodd" clip-rule="evenodd" d="M200.625 0H0V152.5H49.375V275H250V122.5H200.625V0Z" fill="#FFC700"/>
<path fill-rule="evenodd" clip-rule="evenodd" d="M41.3099 55.2499H37.0604V35.9966H29.1172V32.3682H49.3839V35.9966H41.3099V55.2499ZM56.9233 55.2499H52.6739V32.3682H56.9233V41.6189H67.645V32.3682H71.8945V55.2499H67.645V45.28H56.9233V55.2499ZM77.8284 55.2499H94.6301V51.6215H82.0779V45.2473H91.4921V41.6516H82.0779V35.9966H94.6301V32.3682H77.8284V55.2499ZM135.731 237.43C135.731 241.352 132.822 244.49 126.611 244.49C120.76 244.49 117.59 241.418 116.642 237.757L120.662 236.22C121.283 238.639 123.081 240.96 126.677 240.96C129.88 240.96 131.319 239.587 131.319 237.724C131.319 236.089 130.175 235.043 127.396 234.553L124.487 234.063C120.433 233.376 117.786 231.48 117.786 227.394C117.786 223.701 120.891 220.628 126.383 220.628C131.874 220.628 134.587 223.635 135.47 226.414L131.515 227.95C130.894 226.087 129.455 224.158 126.252 224.158C123.375 224.158 122.133 225.564 122.133 227.198C122.133 228.767 123.245 229.65 125.369 230.042L128.344 230.565C132.691 231.284 135.731 233.474 135.731 237.43ZM149.216 244H144.967V224.747H137.024V221.118H157.29V224.747H149.216V244ZM170.146 244.49C177.37 244.49 182.044 239.554 182.044 232.592C182.044 225.662 177.305 220.628 170.146 220.628C162.955 220.628 158.248 225.662 158.248 232.592C158.248 239.554 162.922 244.49 170.146 244.49ZM170.146 240.862C165.472 240.862 162.693 237.332 162.693 232.592C162.693 227.787 165.472 224.256 170.146 224.256C174.82 224.256 177.566 227.787 177.566 232.592C177.566 237.332 174.82 240.862 170.146 240.862ZM190.751 244H186.501V221.118H197.157C201.995 221.118 204.806 223.668 204.806 227.231C204.806 231.088 201.995 232.984 199.119 233.507C202.028 233.867 203.597 235.272 204.153 238.41L205.199 244H200.622L199.838 238.77C199.413 235.991 198.073 234.978 195.131 234.978H190.751V244ZM190.751 224.747V231.415H196.406C198.661 231.415 200.361 230.369 200.361 228.081C200.361 225.793 198.661 224.747 196.406 224.747H190.751ZM209.74 244H226.542V240.372H213.99V233.997H223.404V230.402H213.99V224.747H226.542V221.118H209.74V244ZM80.7284 107.909L83.7332 110.914L90.1589 104.488L97.4167 111.746L100.005 109.157L92.7476 101.899L97.3473 97.2995L106.477 106.43L109.043 103.864L96.9082 91.729L80.7284 107.909ZM95.5132 122.694L98.518 125.699L114.698 109.519L111.693 106.514L95.5132 122.694ZM117.184 139.325C115.45 139.811 112.26 140.134 108.955 136.829C104.656 132.53 104.402 126.081 109.695 120.788C114.572 115.911 121.853 115.98 126.545 120.672C130.821 124.948 130.844 129.641 129.134 133.061L125.112 131.259C126.36 128.67 126.545 125.85 123.933 123.238C121.09 120.395 116.629 120.141 112.861 123.908C109.117 127.653 109.256 131.998 112.122 134.864C115.034 137.777 118.27 137.453 120.027 136.02L114.641 130.634L117.23 128.046L125.62 136.436L117.438 144.618L114.664 141.845L117.184 139.325ZM120.93 148.11L123.934 151.115L131.331 143.718L137.387 137.663L128.835 156.015L131.331 158.511L149.707 149.982L143.651 156.038L136.254 163.435L139.259 166.44L155.439 150.26L150.677 145.498L139.12 150.861C136.185 152.224 135.26 152.64 134.613 152.918C134.844 152.317 135.283 151.323 136.67 148.411L142.033 136.854L137.109 131.93L120.93 148.11ZM157.696 184.876L154.367 181.548L157.002 176.185L150.183 169.367L144.775 171.955L141.539 168.719L163.844 158.665L167.843 162.663L157.696 184.876ZM158.944 165.183L153.651 167.702L158.666 172.718L161.255 167.448L163.358 163.033C162.777 163.324 162.038 163.682 160.818 164.274C160.291 164.529 159.675 164.828 158.944 165.183Z" fill="black"/>
</g>
<defs>
<clipPath id="clip0_34_1441">
<rect width="250" height="275" fill="white"/>
</clipPath>
</defs>
</svg>
