<svg width="24" height="25" viewBox="0 0 24 25" fill="none" xmlns="http://www.w3.org/2000/svg">
<path d="M13.6177 21.867C13.1841 22.273 12.6044 22.5 12.0011 22.5C11.3978 22.5 10.8182 22.273 10.3845 21.867C6.41302 18.126 1.09076 13.9469 3.68627 7.87966C5.08963 4.59916 8.45834 2.5 12.0011 2.5C15.5439 2.5 18.9126 4.59916 20.316 7.87966C22.9082 13.9393 17.599 18.1389 13.6177 21.867Z" stroke="black" stroke-width="2"/>
<path d="M15.5 11.5C15.5 13.433 13.933 15 12 15C10.067 15 8.5 13.433 8.5 11.5C8.5 9.567 10.067 8 12 8C13.933 8 15.5 9.567 15.5 11.5Z" stroke="black" stroke-width="2"/>
</svg>
